<svg xmlns="http://www.w3.org/2000/svg" viewBox="0 0 500 620"><defs><linearGradient id="b" x2="1" y2="1"><stop stop-color="#193e45"/><stop offset="1" stop-color="#171024"/></linearGradient><linearGradient id="s" x2="0" y2="1"><stop stop-color="#f4b180"/><stop offset="1" stop-color="#a55b63"/></linearGradient></defs><rect width="500" height="620" fill="url(#b)"/><circle cx="90" cy="100" r="150" fill="#28e0d0" opacity=".14"/><path d="M42 620c28-153 100-210 209-210 105 0 181 61 207 210" fill="#28143a"/><ellipse cx="251" cy="261" rx="112" ry="146" fill="url(#s)"/><path d="M132 310C80 143 153 50 261 58c118 8 165 129 94 279-2-114-22-190-89-218-15 77-69 132-134 191z" fill="#29151f"/><path d="M155 182c-34 147-13 235 34 283-103-41-112-197-57-316zM346 168c47 121 34 245-38 303 88-34 112-200 56-318z" fill="#21121c"/><circle cx="207" cy="284" r="8"/><circle cx="299" cy="284" r="8"/><path d="M211 353c25 17 55 18 83-3" fill="none" stroke="#8b3c55" stroke-width="8" stroke-linecap="round"/><text x="28" y="586" fill="#fff" font-family="sans-serif" font-size="18" opacity=".7">FICTIONAL DEMO PROFILE</text></svg>
