<svg xmlns="http://www.w3.org/2000/svg" viewBox="105 120 390 560">
<defs>
  <linearGradient id="bg" x1="0" y1="0" x2="1" y2="1"><stop stop-color="#4a2f5e"/><stop offset="1" stop-color="#1c1428"/></linearGradient>
  <radialGradient id="vignette" cx=".5" cy=".42" r=".75"><stop offset=".55" stop-color="#000" stop-opacity="0"/><stop offset="1" stop-color="#000" stop-opacity=".55"/></radialGradient>
  <radialGradient id="skinG" cx=".38" cy=".35" r=".75"><stop stop-color="#c89c81"/><stop offset=".55" stop-color="#b9805e"/><stop offset="1" stop-color="#855c44"/></radialGradient>
  <linearGradient id="neckG" x1="0" y1="0" x2="0" y2="1"><stop stop-color="#664634"/><stop offset=".45" stop-color="#855c44"/><stop offset="1" stop-color="#b9805e"/></linearGradient>
  <linearGradient id="hairG" x1="0" y1="0" x2="0" y2="1"><stop stop-color="#4c423e"/><stop offset=".4" stop-color="#1f130e"/><stop offset="1" stop-color="#110a08"/></linearGradient>
  <linearGradient id="shirtG" x1="0" y1="0" x2="0" y2="1"><stop stop-color="#6b6770"/><stop offset="1" stop-color="#302e34"/></linearGradient>
  <radialGradient id="iris" cx=".45" cy=".4" r=".6"><stop stop-color="#93877f"/><stop offset=".6" stop-color="#3a2416"/><stop offset="1" stop-color="#1d120b"/></radialGradient>
  <linearGradient id="lip" x1="0" y1="0" x2="0" y2="1"><stop stop-color="#a8645a"/><stop offset="1" stop-color="#7e4b44"/></linearGradient>
  <clipPath id="faceClip"><path d="M300 196C364 196 404 244 404 310C404 356 388.2 392 375.6 424C359.4 462 330.6 484 300 486C269.4 484 240.6 462 224.4 424C211.8 392 196 356 196 310C196 244 236 196 300 196Z"/></clipPath>
  <clipPath id="eye-1"><path d="M234 322Q258 307 282 322Q258 333 234 322Z"/></clipPath>
  <clipPath id="eye1"><path d="M318 322Q342 307 366 322Q342 333 318 322Z"/></clipPath>
  <filter id="b1" x="-50%" y="-50%" width="200%" height="200%"><feGaussianBlur stdDeviation="1"/></filter><filter id="b2" x="-50%" y="-50%" width="200%" height="200%"><feGaussianBlur stdDeviation="2"/></filter><filter id="b3" x="-50%" y="-50%" width="200%" height="200%"><feGaussianBlur stdDeviation="3"/></filter><filter id="b4" x="-50%" y="-50%" width="200%" height="200%"><feGaussianBlur stdDeviation="4"/></filter><filter id="b6" x="-50%" y="-50%" width="200%" height="200%"><feGaussianBlur stdDeviation="6"/></filter><filter id="b10" x="-50%" y="-50%" width="200%" height="200%"><feGaussianBlur stdDeviation="10"/></filter><filter id="b18" x="-50%" y="-50%" width="200%" height="200%"><feGaussianBlur stdDeviation="18"/></filter><filter id="b28" x="-50%" y="-50%" width="200%" height="200%"><feGaussianBlur stdDeviation="28"/></filter>
  <filter id="stubble" x="-10%" y="-10%" width="120%" height="120%"><feTurbulence type="fractalNoise" baseFrequency="1.1" numOctaves="2" seed="67" result="n"/><feColorMatrix in="n" type="matrix" values="0 0 0 0 0 0 0 0 0 0 0 0 0 0 0 0 0 0 -2.6 1.75" result="dots"/><feComposite in="SourceGraphic" in2="dots" operator="in"/></filter>
  <filter id="grain"><feTurbulence type="fractalNoise" baseFrequency=".8" numOctaves="2" seed="3"/><feColorMatrix type="saturate" values="0"/><feComponentTransfer><feFuncA type="table" tableValues="0 .07"/></feComponentTransfer><feComposite in2="SourceGraphic" operator="in"/></filter>
</defs>
<rect width="600" height="760" fill="url(#bg)"/>
<g filter="url(#b18)"><circle cx="64" cy="311.1" r="74.2" fill="#b07ad8" opacity="0.6"/><circle cx="550.8" cy="44.1" r="66.4" fill="#b07ad8" opacity="0.3"/><circle cx="583.9" cy="486.3" r="25" fill="#b07ad8" opacity="0.6"/><circle cx="527.1" cy="509.8" r="32.9" fill="#b07ad8" opacity="0.7"/><circle cx="411.7" cy="27.8" r="34.9" fill="#b07ad8" opacity="0.5"/><circle cx="150.7" cy="48.8" r="23.4" fill="#b07ad8" opacity="0.7"/><circle cx="535" cy="410.8" r="63" fill="#e8a0c0" opacity="0.5"/><circle cx="247.5" cy="193.5" r="27.3" fill="#e8a0c0" opacity="0.3"/><circle cx="187.9" cy="490.2" r="66.1" fill="#e8a0c0" opacity="0.6"/><circle cx="438.8" cy="321.6" r="50.1" fill="#e8a0c0" opacity="0.6"/></g>
<g filter="url(#b6)"><circle cx="140.9" cy="95.9" r="12.3" fill="#b07ad8" opacity=".55"/><circle cx="519" cy="416" r="13" fill="#b07ad8" opacity=".55"/><circle cx="432.4" cy="62.2" r="10" fill="#b07ad8" opacity=".55"/><circle cx="437.7" cy="434.5" r="6" fill="#b07ad8" opacity=".55"/><circle cx="33.5" cy="71.1" r="12.9" fill="#e8a0c0" opacity=".55"/><circle cx="566.2" cy="168" r="7.3" fill="#e8a0c0" opacity=".55"/><circle cx="100.7" cy="384.5" r="6.5" fill="#e8a0c0" opacity=".55"/><circle cx="149.8" cy="29.6" r="18.2" fill="#e8a0c0" opacity=".55"/></g>
<path d="M300 150C390 150 438 220 440 320C442 420 470 520 500 740L100 740C130 520 158 420 160 320C162 220 210 150 300 150Z" fill="url(#hairG)"/>
      <g fill="none" stroke-linecap="round"><path d="M267.5 188.8Q170 438.4 151.3 619.6" stroke="#4c423e" stroke-width="1.4" opacity="0.3"/><path d="M275 190.8Q139.2 444.1 122 662" stroke="#4c423e" stroke-width="2.4" opacity="0.3"/><path d="M279.4 190.7Q112 418.3 74 698.3" stroke="#4c423e" stroke-width="2.1" opacity="0.3"/><path d="M287.8 174.8Q128.4 445 97.4 582.4" stroke="#4c423e" stroke-width="3.3" opacity="0.2"/><path d="M292.8 179.5Q134.9 459.3 137.9 618.5" stroke="#4c423e" stroke-width="2" opacity="0.3"/><path d="M266.8 182.5Q136.9 418 121.3 595.6" stroke="#4c423e" stroke-width="1.8" opacity="0.2"/><path d="M290.4 180.7Q153.7 380.6 118.5 649.7" stroke="#4c423e" stroke-width="1.3" opacity="0.2"/><path d="M294.3 197.5Q134.2 384.6 121.4 603.6" stroke="#4c423e" stroke-width="2.4" opacity="0.3"/><path d="M296.1 195Q163.7 386.3 158.7 587.1" stroke="#4c423e" stroke-width="2.3" opacity="0.4"/><path d="M291 184.8Q136.1 389.4 162.9 657.3" stroke="#4c423e" stroke-width="1.1" opacity="0.3"/><path d="M284 171.9Q142.2 390.1 160.1 678.5" stroke="#4c423e" stroke-width="1.8" opacity="0.3"/><path d="M278.6 188.7Q112.2 421.9 105.9 653.3" stroke="#4c423e" stroke-width="2.4" opacity="0.3"/><path d="M284.8 171.3Q133.4 446.5 93.5 657.9" stroke="#4c423e" stroke-width="1.6" opacity="0.4"/><path d="M288 192.8Q152 397.2 125.5 652.2" stroke="#4c423e" stroke-width="1.1" opacity="0.2"/><path d="M272.8 195.9Q160.6 413.3 141.3 669.5" stroke="#4c423e" stroke-width="3" opacity="0.4"/><path d="M284.1 176Q164.2 440.6 138.2 633.1" stroke="#4c423e" stroke-width="2.9" opacity="0.2"/><path d="M289 182.9Q162.8 435 187.7 622" stroke="#4c423e" stroke-width="3" opacity="0.4"/><path d="M264.6 180.2Q141 432.3 133.4 698.5" stroke="#4c423e" stroke-width="1.7" opacity="0.4"/><path d="M284.5 185.1Q117.1 447.9 84.6 612.3" stroke="#4c423e" stroke-width="1.3" opacity="0.3"/><path d="M284.7 181.7Q143.4 392.9 139.1 623.9" stroke="#4c423e" stroke-width="2.5" opacity="0.4"/><path d="M263.2 172.5Q133.7 429.4 100.6 650.5" stroke="#4c423e" stroke-width="2.4" opacity="0.3"/><path d="M280.4 193.7Q141.1 407.1 158.8 595.9" stroke="#4c423e" stroke-width="2.8" opacity="0.3"/><path d="M297.9 184.1Q112.7 420.4 113.4 663.5" stroke="#4c423e" stroke-width="1.5" opacity="0.3"/><path d="M283.1 186Q130.4 451.8 107.3 618.7" stroke="#4c423e" stroke-width="2.4" opacity="0.4"/><path d="M268.9 189.2Q156.4 457.6 134.5 652.8" stroke="#4c423e" stroke-width="2.1" opacity="0.2"/><path d="M298.1 174.2Q160.3 455.7 187.8 653.9" stroke="#4c423e" stroke-width="1.1" opacity="0.3"/><path d="M270.4 189.2Q114.2 438.4 110.4 592.8" stroke="#4c423e" stroke-width="1.6" opacity="0.4"/><path d="M286.5 190.8Q131.1 402.3 135.6 679.1" stroke="#4c423e" stroke-width="1.2" opacity="0.3"/><path d="M269.6 192Q122 435.8 126.1 650.3" stroke="#4c423e" stroke-width="1.1" opacity="0.3"/><path d="M287 175.2Q143.3 403 142.5 594" stroke="#4c423e" stroke-width="1.4" opacity="0.3"/><path d="M281.5 179.7Q166.4 383.6 163.8 679.4" stroke="#4c423e" stroke-width="3.2" opacity="0.2"/><path d="M288.2 171.2Q155.4 384.7 128.4 612.2" stroke="#4c423e" stroke-width="1.9" opacity="0.4"/><path d="M276.1 192.6Q126.4 383.2 121.5 637.2" stroke="#4c423e" stroke-width="1.8" opacity="0.3"/><path d="M292.7 179.8Q158.7 404.6 158.5 693.9" stroke="#4c423e" stroke-width="2.8" opacity="0.3"/><path d="M298.5 181.3Q162.8 382.4 189.3 637.7" stroke="#4c423e" stroke-width="1.8" opacity="0.4"/><path d="M269.7 195.6Q110.3 450.1 115.6 589.4" stroke="#4c423e" stroke-width="1.4" opacity="0.3"/><path d="M266 185Q153.9 425.4 170.5 672.4" stroke="#4c423e" stroke-width="2.5" opacity="0.4"/><path d="M279 189Q128 400 112.6 646.4" stroke="#4c423e" stroke-width="3" opacity="0.3"/><path d="M296.8 176.3Q123.1 408.6 90.9 595.8" stroke="#4c423e" stroke-width="1.3" opacity="0.2"/><path d="M284.2 172.6Q163.3 388 152.4 600" stroke="#4c423e" stroke-width="2.2" opacity="0.3"/><path d="M287.7 185.4Q140.7 393.8 166 650.5" stroke="#4c423e" stroke-width="2.9" opacity="0.3"/><path d="M265.3 180.3Q127.3 444.4 134.1 587.2" stroke="#4c423e" stroke-width="3" opacity="0.4"/><path d="M290.3 193.2Q127.2 381 156.6 663.1" stroke="#4c423e" stroke-width="2.1" opacity="0.4"/><path d="M288.1 196Q152.5 459.3 144.4 598.1" stroke="#4c423e" stroke-width="2.5" opacity="0.3"/><path d="M276.9 172.9Q114.6 386.1 81.9 695.7" stroke="#4c423e" stroke-width="1.7" opacity="0.2"/><path d="M299.9 181.2Q136.5 386.4 125.1 640.5" stroke="#4c423e" stroke-width="3" opacity="0.4"/><path d="M278.1 185Q138.1 422.8 115.9 642.4" stroke="#4c423e" stroke-width="2.8" opacity="0.3"/><path d="M289.8 170.7Q144.5 409.2 144.2 626.7" stroke="#4c423e" stroke-width="2.7" opacity="0.3"/><path d="M288.6 176.3Q141.9 408.4 107 637.5" stroke="#4c423e" stroke-width="2.1" opacity="0.2"/><path d="M283 175.4Q155.6 439 152 646.1" stroke="#4c423e" stroke-width="1.3" opacity="0.3"/><path d="M260 174.7Q119.2 422 142.9 606.5" stroke="#4c423e" stroke-width="2.6" opacity="0.4"/><path d="M268.7 188.8Q111.9 456.4 78.6 581.9" stroke="#4c423e" stroke-width="2.8" opacity="0.3"/><path d="M270.5 184.8Q126 452 128.7 698.5" stroke="#4c423e" stroke-width="2.5" opacity="0.4"/><path d="M297.2 174.7Q115.1 448.5 102.6 614.7" stroke="#4c423e" stroke-width="2.5" opacity="0.2"/><path d="M295.2 180.2Q118.9 388.9 123.4 584" stroke="#4c423e" stroke-width="1.8" opacity="0.4"/><path d="M279.6 185.5Q133.8 454.4 136.9 675" stroke="#4c423e" stroke-width="1.6" opacity="0.3"/><path d="M294.1 191.3Q137.7 415 164.8 589.6" stroke="#4c423e" stroke-width="3.1" opacity="0.2"/><path d="M285.8 195.6Q153.5 414.4 150.3 680.8" stroke="#4c423e" stroke-width="2" opacity="0.4"/><path d="M289 189.9Q136.7 427.1 110 695.1" stroke="#4c423e" stroke-width="2.5" opacity="0.3"/><path d="M268.4 174.7Q145.6 455 138.6 693.2" stroke="#4c423e" stroke-width="1.4" opacity="0.2"/><path d="M291.4 199.6Q153 410.7 175 633.7" stroke="#4c423e" stroke-width="2.4" opacity="0.4"/><path d="M278.8 184.9Q164.2 396 192.9 619.4" stroke="#4c423e" stroke-width="2.6" opacity="0.3"/><path d="M265.9 190.8Q143.1 438.1 151.2 593.4" stroke="#4c423e" stroke-width="1.2" opacity="0.3"/><path d="M295.3 195.6Q124.9 436.3 141.5 657.6" stroke="#4c423e" stroke-width="1.9" opacity="0.3"/><path d="M275.6 177.2Q143.6 396.2 119.9 656.2" stroke="#4c423e" stroke-width="1.7" opacity="0.3"/><path d="M268.6 191.6Q134.6 410.3 118 643.5" stroke="#4c423e" stroke-width="1.8" opacity="0.2"/><path d="M268 192.7Q117.4 418.6 80.2 584.6" stroke="#4c423e" stroke-width="2.5" opacity="0.2"/><path d="M288.1 177.9Q127.3 438 109.2 694.3" stroke="#4c423e" stroke-width="1.9" opacity="0.3"/><path d="M263 194.2Q146 431.5 146.8 603.7" stroke="#4c423e" stroke-width="1.2" opacity="0.4"/><path d="M273.6 187.3Q166 400.8 185.7 641.2" stroke="#4c423e" stroke-width="3.1" opacity="0.2"/><path d="M309.8 189.5Q464 413.1 436.3 640.3" stroke="#4c423e" stroke-width="2.7" opacity="0.3"/><path d="M334.6 179.9Q478.7 434 495.2 622.1" stroke="#4c423e" stroke-width="2" opacity="0.4"/><path d="M311.5 197.6Q466.1 397.3 494.2 635.9" stroke="#4c423e" stroke-width="2.2" opacity="0.3"/><path d="M339.2 179.7Q463.2 410.8 465.9 627.7" stroke="#4c423e" stroke-width="1.7" opacity="0.2"/><path d="M305.9 179.9Q465.7 452.1 482.7 691.3" stroke="#4c423e" stroke-width="2.7" opacity="0.3"/><path d="M331 178.2Q432.3 411.5 411.8 604.8" stroke="#4c423e" stroke-width="1.7" opacity="0.4"/><path d="M338.5 196.4Q472.3 406.6 452.2 635.3" stroke="#4c423e" stroke-width="2.6" opacity="0.3"/><path d="M323.4 176.6Q456.6 416.5 475.6 643" stroke="#4c423e" stroke-width="2.8" opacity="0.2"/><path d="M304.8 183.9Q435.6 430.9 414.9 690.2" stroke="#4c423e" stroke-width="2.3" opacity="0.4"/><path d="M301.6 174.5Q481.1 442.6 520.1 685.2" stroke="#4c423e" stroke-width="3" opacity="0.4"/><path d="M333.9 180.8Q480.3 415.1 470.1 624.1" stroke="#4c423e" stroke-width="1.7" opacity="0.3"/><path d="M313.3 170.9Q470 413 492.7 697.3" stroke="#4c423e" stroke-width="1.9" opacity="0.3"/><path d="M320 188.6Q475.5 412.9 489.8 676.8" stroke="#4c423e" stroke-width="2" opacity="0.4"/><path d="M334.5 198.7Q461.7 393.9 462.6 648.7" stroke="#4c423e" stroke-width="2.7" opacity="0.4"/><path d="M310.5 176.3Q458.1 441.2 449.4 690.8" stroke="#4c423e" stroke-width="2.9" opacity="0.2"/><path d="M300.3 178.7Q461 447.2 494 616.7" stroke="#4c423e" stroke-width="2.4" opacity="0.3"/><path d="M331.8 196.5Q459.8 445.2 457.8 642.1" stroke="#4c423e" stroke-width="1.8" opacity="0.3"/><path d="M327.7 185.8Q478.2 441.2 512.6 609.6" stroke="#4c423e" stroke-width="1.5" opacity="0.2"/><path d="M322.7 173.9Q457.3 432.2 427.4 685.5" stroke="#4c423e" stroke-width="2.1" opacity="0.4"/><path d="M314 182.7Q459 394.5 475.1 583.3" stroke="#4c423e" stroke-width="1.1" opacity="0.4"/><path d="M329 181.4Q469.7 428.6 478.8 616.2" stroke="#4c423e" stroke-width="1.8" opacity="0.3"/><path d="M324 193.7Q438.7 422.8 448.7 608" stroke="#4c423e" stroke-width="1.4" opacity="0.3"/><path d="M330.9 191.1Q481.8 382.5 484.1 621.2" stroke="#4c423e" stroke-width="2.6" opacity="0.2"/><path d="M317.1 188.8Q450.2 401.4 479.4 621.8" stroke="#4c423e" stroke-width="1.8" opacity="0.3"/><path d="M321.5 190.6Q456.9 445 493.9 671.5" stroke="#4c423e" stroke-width="3.1" opacity="0.2"/><path d="M308.7 180Q444.7 435.3 454.2 689.6" stroke="#4c423e" stroke-width="3.1" opacity="0.4"/><path d="M306.4 191.8Q470.8 412.3 476.8 632" stroke="#4c423e" stroke-width="2.6" opacity="0.2"/><path d="M338.1 188.5Q485.7 454.3 516.5 617" stroke="#4c423e" stroke-width="3" opacity="0.4"/><path d="M320 176.2Q451.8 413.4 465.2 623.6" stroke="#4c423e" stroke-width="2.5" opacity="0.2"/><path d="M305.7 188.2Q464 410.5 475.5 646.8" stroke="#4c423e" stroke-width="1.9" opacity="0.2"/><path d="M339.5 191.9Q479.1 425.8 467.1 661.6" stroke="#4c423e" stroke-width="1.3" opacity="0.3"/><path d="M338.9 174.3Q443.2 448.1 426.7 698.5" stroke="#4c423e" stroke-width="2.5" opacity="0.3"/><path d="M306.7 197.1Q477.4 450.6 487.8 592.4" stroke="#4c423e" stroke-width="1.3" opacity="0.2"/><path d="M337 183.8Q477.3 396.4 496 643.1" stroke="#4c423e" stroke-width="2.9" opacity="0.3"/><path d="M302.7 195.6Q463.5 427.5 473.8 665" stroke="#4c423e" stroke-width="2.5" opacity="0.2"/><path d="M305.9 188Q439.4 380.2 442.7 586.3" stroke="#4c423e" stroke-width="1.5" opacity="0.3"/><path d="M325.6 196.5Q437.6 402.5 447.4 674" stroke="#4c423e" stroke-width="2.7" opacity="0.4"/><path d="M316.8 176Q454.5 418.2 468.7 639.9" stroke="#4c423e" stroke-width="1.3" opacity="0.4"/><path d="M315.3 174.7Q452.3 407.8 490.4 636.2" stroke="#4c423e" stroke-width="3" opacity="0.2"/><path d="M306.1 191.6Q470.5 425.6 475.4 671.2" stroke="#4c423e" stroke-width="1.1" opacity="0.3"/><path d="M308.4 193.2Q466.9 457.5 500.1 617" stroke="#4c423e" stroke-width="2.8" opacity="0.4"/><path d="M336.3 174.7Q484.1 386 499.2 682.6" stroke="#4c423e" stroke-width="2.9" opacity="0.3"/><path d="M321.4 178.5Q442.5 457.1 419.2 652.2" stroke="#4c423e" stroke-width="2.1" opacity="0.3"/><path d="M327.2 177.3Q461.9 386.8 478 657.9" stroke="#4c423e" stroke-width="1.9" opacity="0.3"/><path d="M324.3 172.4Q465.5 435.8 470.2 597.5" stroke="#4c423e" stroke-width="1.8" opacity="0.3"/><path d="M327.6 177.4Q445.8 415.5 460.7 625.6" stroke="#4c423e" stroke-width="2.8" opacity="0.2"/><path d="M313.6 195.3Q464.9 418.5 468.3 678" stroke="#4c423e" stroke-width="2" opacity="0.3"/><path d="M300.6 180.6Q439.3 455.8 448.8 587.9" stroke="#4c423e" stroke-width="2.7" opacity="0.3"/><path d="M325.4 174.2Q445 456.3 456 641.1" stroke="#4c423e" stroke-width="2.7" opacity="0.2"/><path d="M311.1 175.6Q433.9 410.6 460.2 588.7" stroke="#4c423e" stroke-width="1.4" opacity="0.4"/><path d="M300.3 187.3Q476.7 446.9 512.9 684.9" stroke="#4c423e" stroke-width="2.9" opacity="0.2"/><path d="M301.7 195.1Q474.3 383.7 491.9 672.9" stroke="#4c423e" stroke-width="2.3" opacity="0.2"/><path d="M308.5 198.2Q485.5 386.6 484.8 599.6" stroke="#4c423e" stroke-width="2.2" opacity="0.3"/><path d="M325.6 185.1Q444.1 422.9 467.9 597.4" stroke="#4c423e" stroke-width="3" opacity="0.2"/><path d="M312.2 177.6Q459.4 452.7 486.3 663.7" stroke="#4c423e" stroke-width="2" opacity="0.2"/><path d="M339.2 183.3Q434.5 423.8 433.3 682.7" stroke="#4c423e" stroke-width="3.1" opacity="0.2"/><path d="M330.3 175.7Q451.7 380 438.1 654.9" stroke="#4c423e" stroke-width="2.7" opacity="0.4"/><path d="M311.9 173.8Q430.2 416.4 433.8 680.6" stroke="#4c423e" stroke-width="2.3" opacity="0.2"/><path d="M312.6 188.6Q480.8 381.4 512.3 612.9" stroke="#4c423e" stroke-width="2.5" opacity="0.4"/><path d="M304.6 184.8Q439 444.7 423.8 664.9" stroke="#4c423e" stroke-width="2.5" opacity="0.2"/><path d="M304.5 174.1Q430.8 428.9 420.1 669.6" stroke="#4c423e" stroke-width="2.1" opacity="0.3"/><path d="M338.2 185.4Q482.1 413.3 482.2 632" stroke="#4c423e" stroke-width="2.1" opacity="0.3"/><path d="M312.9 199.2Q452.6 413.4 435.5 622.5" stroke="#4c423e" stroke-width="1.6" opacity="0.3"/><path d="M333.6 178.2Q486.7 454.6 492 602" stroke="#4c423e" stroke-width="2.4" opacity="0.4"/><path d="M327.3 178.4Q443.8 401.7 469.6 649.5" stroke="#4c423e" stroke-width="2.2" opacity="0.4"/><path d="M302.9 187.8Q460.7 394.8 447.3 677.6" stroke="#4c423e" stroke-width="2.5" opacity="0.4"/><path d="M321.2 187.1Q461.7 406.4 500.9 582.3" stroke="#4c423e" stroke-width="1.4" opacity="0.3"/><path d="M336.2 178.9Q479 450.1 511.8 692.5" stroke="#4c423e" stroke-width="3.1" opacity="0.4"/><path d="M315.5 192.4Q473.9 452.3 508 668.6" stroke="#4c423e" stroke-width="1.5" opacity="0.2"/><path d="M332.2 179.3Q458.9 385.9 444.1 668.3" stroke="#4c423e" stroke-width="1.3" opacity="0.4"/></g>
      <g fill="none" stroke-linecap="round"><path d="M296.5 175Q155.1 400 172.4 626.8" stroke="#110a08" stroke-width="4.3" opacity="0.3"/><path d="M293.7 175Q122.8 400 143.2 629" stroke="#110a08" stroke-width="3.2" opacity="0.4"/><path d="M292.2 175Q128.7 400 126.5 659.4" stroke="#110a08" stroke-width="3.8" opacity="0.3"/><path d="M279.8 175Q164.3 400 146.2 574" stroke="#110a08" stroke-width="2" opacity="0.4"/><path d="M294.1 175Q149.6 400 170 633.7" stroke="#110a08" stroke-width="3.4" opacity="0.3"/><path d="M278.6 175Q124.6 400 113.9 591.6" stroke="#110a08" stroke-width="1.5" opacity="0.2"/><path d="M282.4 175Q156.7 400 166.5 628.3" stroke="#110a08" stroke-width="1.6" opacity="0.4"/><path d="M277.2 175Q167.5 400 194.3 643" stroke="#110a08" stroke-width="3.3" opacity="0.3"/><path d="M282.6 175Q126.8 400 109.2 571.3" stroke="#110a08" stroke-width="3.2" opacity="0.2"/><path d="M299.8 175Q125.9 400 143 652.1" stroke="#110a08" stroke-width="3.8" opacity="0.3"/><path d="M272.1 175Q168.2 400 171 615.6" stroke="#110a08" stroke-width="3.3" opacity="0.3"/><path d="M277.6 175Q132.3 400 135.5 587.7" stroke="#110a08" stroke-width="2.2" opacity="0.4"/><path d="M293 175Q147.6 400 166.5 654.8" stroke="#110a08" stroke-width="2.1" opacity="0.3"/><path d="M298.9 175Q167.5 400 167.9 614.1" stroke="#110a08" stroke-width="3.5" opacity="0.3"/><path d="M295.6 175Q132.6 400 117.7 600" stroke="#110a08" stroke-width="1.8" opacity="0.3"/><path d="M296 175Q134.5 400 152.5 631.1" stroke="#110a08" stroke-width="1.8" opacity="0.5"/><path d="M271.2 175Q124.9 400 153.1 609" stroke="#110a08" stroke-width="4.2" opacity="0.3"/><path d="M299.9 175Q164.7 400 172 608.9" stroke="#110a08" stroke-width="3" opacity="0.3"/><path d="M282.4 175Q158.7 400 179.2 576.6" stroke="#110a08" stroke-width="2.2" opacity="0.4"/><path d="M294.8 175Q129.5 400 141.5 585.8" stroke="#110a08" stroke-width="1.9" opacity="0.5"/><path d="M283.7 175Q168.2 400 185.5 651.4" stroke="#110a08" stroke-width="1.8" opacity="0.3"/><path d="M289.4 175Q157.6 400 167.5 619.8" stroke="#110a08" stroke-width="2.9" opacity="0.3"/><path d="M298.6 175Q132.3 400 142.7 642.9" stroke="#110a08" stroke-width="2.9" opacity="0.2"/><path d="M286.3 175Q145.5 400 162.2 653.6" stroke="#110a08" stroke-width="1.6" opacity="0.3"/><path d="M288.9 175Q137.2 400 118.5 569.6" stroke="#110a08" stroke-width="2.6" opacity="0.3"/><path d="M279.6 175Q152.2 400 169.2 634.9" stroke="#110a08" stroke-width="1.7" opacity="0.3"/><path d="M294.8 175Q134.1 400 129.4 617.8" stroke="#110a08" stroke-width="3.2" opacity="0.2"/><path d="M272.8 175Q151.8 400 157.6 618.4" stroke="#110a08" stroke-width="1.8" opacity="0.3"/><path d="M288.2 175Q140 400 136.9 619.3" stroke="#110a08" stroke-width="3" opacity="0.2"/><path d="M293.7 175Q166.9 400 166.2 562.2" stroke="#110a08" stroke-width="3" opacity="0.3"/><path d="M292.6 175Q146 400 138.8 567.7" stroke="#110a08" stroke-width="3.6" opacity="0.4"/><path d="M291.3 175Q139.5 400 139.6 615.1" stroke="#110a08" stroke-width="4.5" opacity="0.5"/><path d="M286.9 175Q135.6 400 147 626.7" stroke="#110a08" stroke-width="2.2" opacity="0.3"/><path d="M284.7 175Q126.8 400 128.5 617.8" stroke="#110a08" stroke-width="1.8" opacity="0.4"/><path d="M285.1 175Q154.7 400 176.2 577.3" stroke="#110a08" stroke-width="2" opacity="0.2"/><path d="M291 175Q144.9 400 154.8 612.6" stroke="#110a08" stroke-width="3.4" opacity="0.4"/><path d="M292.5 175Q134.5 400 127.4 574.7" stroke="#110a08" stroke-width="2.5" opacity="0.5"/><path d="M293.5 175Q160.2 400 184.9 642.8" stroke="#110a08" stroke-width="4.4" opacity="0.2"/><path d="M280.3 175Q161.1 400 161.7 658.6" stroke="#110a08" stroke-width="3.4" opacity="0.3"/><path d="M288.1 175Q124.1 400 149.8 566.5" stroke="#110a08" stroke-width="1.7" opacity="0.3"/><path d="M275.9 175Q159.5 400 186 658.3" stroke="#110a08" stroke-width="2.8" opacity="0.4"/><path d="M276.4 175Q124.7 400 133.9 596.5" stroke="#110a08" stroke-width="2.4" opacity="0.2"/><path d="M288.6 175Q127.6 400 133.8 578.2" stroke="#110a08" stroke-width="3.9" opacity="0.3"/><path d="M270.7 175Q128.8 400 117.7 609.6" stroke="#110a08" stroke-width="2.8" opacity="0.3"/><path d="M275.9 175Q129.5 400 143.1 589.6" stroke="#110a08" stroke-width="3.7" opacity="0.3"/><path d="M306.1 175Q478.5 400 481.5 592.4" stroke="#110a08" stroke-width="2.5" opacity="0.5"/><path d="M301.9 175Q439.4 400 414.3 638.7" stroke="#110a08" stroke-width="1.6" opacity="0.4"/><path d="M327.3 175Q443.3 400 455.2 573.5" stroke="#110a08" stroke-width="1.6" opacity="0.3"/><path d="M326 175Q469 400 466.6 652.6" stroke="#110a08" stroke-width="2.5" opacity="0.4"/><path d="M308.7 175Q431.9 400 406.8 589.7" stroke="#110a08" stroke-width="1.8" opacity="0.3"/><path d="M328.1 175Q470.6 400 454.1 582.6" stroke="#110a08" stroke-width="2.1" opacity="0.4"/><path d="M308.6 175Q463.4 400 458.2 632.6" stroke="#110a08" stroke-width="2.5" opacity="0.4"/><path d="M320.6 175Q475 400 450.7 648.3" stroke="#110a08" stroke-width="2.3" opacity="0.4"/><path d="M302.3 175Q450.7 400 424.8 629.1" stroke="#110a08" stroke-width="2.1" opacity="0.4"/><path d="M313.4 175Q458.9 400 458.8 658.7" stroke="#110a08" stroke-width="2.6" opacity="0.3"/><path d="M320.3 175Q439.3 400 437.4 596.8" stroke="#110a08" stroke-width="3.2" opacity="0.4"/><path d="M323.3 175Q433.3 400 433.6 612.6" stroke="#110a08" stroke-width="2.3" opacity="0.4"/><path d="M314.7 175Q448.4 400 442.8 580.8" stroke="#110a08" stroke-width="2.5" opacity="0.3"/><path d="M319.8 175Q452.8 400 448.6 582.6" stroke="#110a08" stroke-width="2" opacity="0.3"/><path d="M314 175Q446.9 400 426.6 633.8" stroke="#110a08" stroke-width="2.1" opacity="0.2"/><path d="M312.1 175Q432.4 400 439.4 597.3" stroke="#110a08" stroke-width="2.7" opacity="0.4"/><path d="M307.1 175Q459.3 400 475.8 626.6" stroke="#110a08" stroke-width="2.6" opacity="0.3"/><path d="M326.5 175Q466.2 400 437.5 619.3" stroke="#110a08" stroke-width="1.8" opacity="0.3"/><path d="M300.7 175Q473 400 462.8 625.1" stroke="#110a08" stroke-width="3.6" opacity="0.4"/><path d="M317.5 175Q475.6 400 467.2 562.8" stroke="#110a08" stroke-width="2.6" opacity="0.3"/><path d="M307.2 175Q452.6 400 445.1 569.5" stroke="#110a08" stroke-width="2.4" opacity="0.5"/><path d="M303.8 175Q451.7 400 462.4 648.8" stroke="#110a08" stroke-width="2" opacity="0.4"/><path d="M300.6 175Q446.6 400 436.6 651.8" stroke="#110a08" stroke-width="1.6" opacity="0.4"/><path d="M311.5 175Q470.3 400 471 583.4" stroke="#110a08" stroke-width="3.9" opacity="0.2"/><path d="M308.5 175Q445.7 400 462.3 580.2" stroke="#110a08" stroke-width="1.8" opacity="0.2"/><path d="M310.8 175Q476.1 400 484.8 616.6" stroke="#110a08" stroke-width="2" opacity="0.5"/><path d="M326.6 175Q463.7 400 459 647.2" stroke="#110a08" stroke-width="1.7" opacity="0.5"/><path d="M310.3 175Q452.6 400 458.5 560.8" stroke="#110a08" stroke-width="1.7" opacity="0.4"/><path d="M325.4 175Q439.3 400 445.5 622.5" stroke="#110a08" stroke-width="2" opacity="0.3"/><path d="M310.6 175Q437.6 400 430.2 594.5" stroke="#110a08" stroke-width="3.5" opacity="0.4"/><path d="M308.1 175Q447.2 400 431.3 643.3" stroke="#110a08" stroke-width="3.7" opacity="0.2"/><path d="M328.2 175Q478.4 400 464.1 560.5" stroke="#110a08" stroke-width="1.7" opacity="0.4"/><path d="M301.7 175Q464 400 467.1 613.7" stroke="#110a08" stroke-width="2.9" opacity="0.3"/><path d="M319.3 175Q470 400 444.2 611.5" stroke="#110a08" stroke-width="1.7" opacity="0.2"/><path d="M306.3 175Q444.6 400 419 612.8" stroke="#110a08" stroke-width="3.4" opacity="0.5"/><path d="M300.8 175Q444.3 400 420 584.6" stroke="#110a08" stroke-width="2.4" opacity="0.3"/><path d="M322.2 175Q433.7 400 452.5 596.9" stroke="#110a08" stroke-width="1.6" opacity="0.4"/><path d="M314.6 175Q437.4 400 456.5 625.7" stroke="#110a08" stroke-width="3.5" opacity="0.4"/><path d="M326.6 175Q452.9 400 436.9 630" stroke="#110a08" stroke-width="4.4" opacity="0.2"/><path d="M325 175Q437.5 400 425.8 634.8" stroke="#110a08" stroke-width="2.6" opacity="0.2"/><path d="M309 175Q446.3 400 429.9 608.2" stroke="#110a08" stroke-width="4.5" opacity="0.3"/><path d="M328.1 175Q436.1 400 413.1 614.6" stroke="#110a08" stroke-width="2.9" opacity="0.3"/><path d="M314 175Q460.1 400 478 626.5" stroke="#110a08" stroke-width="3.8" opacity="0.3"/><path d="M311 175Q466.9 400 462.7 570.6" stroke="#110a08" stroke-width="2.4" opacity="0.4"/><path d="M305.8 175Q442.8 400 431.8 614" stroke="#110a08" stroke-width="1.7" opacity="0.4"/></g>
<path d="M10 760C24 630 140 562 232 548L368 548C460 562 576 630 590 760Z" fill="url(#shirtG)"/>
<path d="M10 760C24 630 140 562 232 548L368 548C460 562 576 630 590 760Z" fill="#000" opacity=".25" filter="url(#b18)" transform="translate(30 0)"/>
<path d="M244 430C246 480 240 530 232 552C262 576 338 576 368 552C360 530 354 480 356 430Z" fill="url(#neckG)"/>
<ellipse cx="300" cy="492" rx="70" ry="26" fill="#664634" opacity=".6" filter="url(#b10)"/>
<path d="M232 552C258 584 342 584 368 552" stroke="#29272c" stroke-width="10" fill="none" stroke-linecap="round"/>
<ellipse cx="196" cy="338" rx="15" ry="31" fill="#855c44"/><ellipse cx="404" cy="338" rx="15" ry="31" fill="#855c44"/>
<ellipse cx="198" cy="338" rx="7" ry="18" fill="#664634" opacity=".5" filter="url(#b2)"/><ellipse cx="402" cy="338" rx="7" ry="18" fill="#664634" opacity=".5" filter="url(#b2)"/>
<path d="M300 196C364 196 404 244 404 310C404 356 388.2 392 375.6 424C359.4 462 330.6 484 300 486C269.4 484 240.6 462 224.4 424C211.8 392 196 356 196 310C196 244 236 196 300 196Z" fill="url(#skinG)"/>
<g clip-path="url(#faceClip)">
  <ellipse cx="400" cy="340" rx="50" ry="170" fill="#664634" opacity=".45" filter="url(#b18)"/>
  <ellipse cx="190" cy="330" rx="30" ry="150" fill="#855c44" opacity=".25" filter="url(#b18)"/>
  <ellipse cx="300" cy="250" rx="70" ry="38" fill="#c89c81" opacity=".45" filter="url(#b18)"/>
  <ellipse cx="300" cy="470" rx="90" ry="26" fill="#664634" opacity=".35" filter="url(#b10)"/>
  <ellipse cx="248" cy="380" rx="32" ry="20" fill="#c46e5e" opacity="0.4" filter="url(#b10)"/>
  <ellipse cx="352" cy="380" rx="32" ry="20" fill="#c46e5e" opacity="0.4" filter="url(#b10)"/>
  <ellipse cx="258" cy="338" rx="20" ry="7" fill="#664634" opacity=".14" filter="url(#b6)"/>
  <ellipse cx="342" cy="338" rx="20" ry="7" fill="#664634" opacity=".14" filter="url(#b6)"/>
  <ellipse cx="232" cy="360" rx="20" ry="16" fill="#c89c81" opacity=".25" filter="url(#b6)"/><ellipse cx="368" cy="360" rx="20" ry="16" fill="#c89c81" opacity=".25" filter="url(#b6)"/><ellipse cx="208" cy="290" rx="18" ry="44" fill="#664634" opacity=".35" filter="url(#b10)"/><ellipse cx="392" cy="290" rx="18" ry="44" fill="#664634" opacity=".35" filter="url(#b10)"/><ellipse cx="300" cy="462" rx="30" ry="12" fill="#c89c81" opacity=".35" filter="url(#b6)"/>
  <rect width="600" height="760" fill="#fff" filter="url(#grain)"/>
  <path d="M200 236C240 222 360 222 400 236L400 200L200 200Z" fill="#664634" opacity=".35" filter="url(#b10)"/>
</g>

    <path d="M287 318C284 345 279 365 278 382" stroke="#664634" stroke-width="7" fill="none" opacity=".22" filter="url(#b4)"/>
    <path d="M313 318C316 345 320 362 322 380" stroke="#664634" stroke-width="5" fill="none" opacity=".12" filter="url(#b4)"/>
    <path d="M300 320C302 345 304 362 306 374" stroke="#c89c81" stroke-width="7" fill="none" opacity=".35" filter="url(#b4)"/>
    <ellipse cx="302" cy="377" rx="11" ry="8" fill="#c89c81" opacity=".5" filter="url(#b3)"/>
    <path d="M280 384Q286 396 296 392M320 384Q314 396 304 392" stroke="#664634" stroke-width="2.4" fill="none" opacity=".55" filter="url(#b1)"/>
    <ellipse cx="290" cy="391" rx="6" ry="3" fill="#463124" opacity=".6" filter="url(#b1)"/>
    <ellipse cx="310" cy="391" rx="6" ry="3" fill="#463124" opacity=".6" filter="url(#b1)"/>
    <ellipse cx="300" cy="404" rx="12" ry="7" fill="#855c44" opacity=".25" filter="url(#b3)"/>

      <path d="M232 324Q258 304 284 322" stroke="#855c44" stroke-width="6" fill="none" opacity=".35" filter="url(#b3)"/>
      <g clip-path="url(#eye-1)">
        <path d="M234 322Q258 307 282 322Q258 333 234 322Z" fill="#efe6e2"/>
        <circle cx="258" cy="321" r="11" fill="url(#iris)"/>
        <circle cx="258" cy="321" r="11" fill="none" stroke="#170e09" stroke-width="1.4" opacity=".7"/>
        <circle cx="258" cy="321" r="4.6" fill="#0d0a0a"/>
        <path d="M234 322Q258 307 282 322" stroke="#000" stroke-width="7" fill="none" opacity=".18" filter="url(#b2)"/>
        <circle cx="261.5" cy="317" r="2.6" fill="#fff" opacity=".95"/>
      </g>
      <path d="M232 323Q258 305 284 321" stroke="#100a07" stroke-width="3.6" fill="none" stroke-linecap="round"/>
      <path d="M236 318l-8 -5" stroke="#100a07" stroke-width="2.6" stroke-linecap="round"/>
      <path d="M234 313Q258 295 282 313" stroke="#664634" stroke-width="1.4" fill="none" opacity=".45"/>
      <path d="M238 328Q258 335 278 327" stroke="#664634" stroke-width="1.2" fill="none" opacity=".35"/>
      <path d="M316 324Q342 304 368 322" stroke="#855c44" stroke-width="6" fill="none" opacity=".35" filter="url(#b3)"/>
      <g clip-path="url(#eye1)">
        <path d="M318 322Q342 307 366 322Q342 333 318 322Z" fill="#efe6e2"/>
        <circle cx="342" cy="321" r="11" fill="url(#iris)"/>
        <circle cx="342" cy="321" r="11" fill="none" stroke="#170e09" stroke-width="1.4" opacity=".7"/>
        <circle cx="342" cy="321" r="4.6" fill="#0d0a0a"/>
        <path d="M318 322Q342 307 366 322" stroke="#000" stroke-width="7" fill="none" opacity=".18" filter="url(#b2)"/>
        <circle cx="345.5" cy="317" r="2.6" fill="#fff" opacity=".95"/>
      </g>
      <path d="M316 323Q342 305 368 321" stroke="#100a07" stroke-width="3.6" fill="none" stroke-linecap="round"/>
      <path d="M364 318l8 -5" stroke="#100a07" stroke-width="2.6" stroke-linecap="round"/>
      <path d="M318 313Q342 295 366 313" stroke="#664634" stroke-width="1.4" fill="none" opacity=".45"/>
      <path d="M322 328Q342 335 362 327" stroke="#664634" stroke-width="1.2" fill="none" opacity=".35"/>
<path d="M288 294Q262 280 228 291Q258 286 288 300Z" fill="#170e0b" opacity=".92" filter="url(#b1)"/><path d="M312 294Q338 280 372 291Q342 286 312 300Z" fill="#170e0b" opacity=".92" filter="url(#b1)"/>

    <path d="M268 419.6Q300 438.8 332 419.6" stroke="#664634" stroke-width="8" fill="none" opacity=".25" filter="url(#b3)"/>
    <path d="M270 417.8Q285 412 300 416Q315 412 330 417.8Q300 429 270 417.8Z" fill="#8a524a"/>
    <path d="M272 419.6Q300 431 328 419.6Q318 442.6 300 443.6Q282 442.6 272 419.6Z" fill="url(#lip)"/>
    <ellipse cx="302" cy="434.6" rx="11" ry="3.5" fill="#fff" opacity=".22" filter="url(#b2)"/>
    <path d="M269 417.8Q300 432.8 331 417.8" stroke="#4c2d28" stroke-width="1.8" fill="none" stroke-linecap="round"/>
    <path d="M268 415q-4 3 -3 7M332 415q4 3 3 7" stroke="#664634" stroke-width="1.6" fill="none" opacity=".5"/>

<path d="M282 168C230 170 410 200 412 300C418 380 422 460 432 560L400 560C392 450 390 360 370 290C346 236 280 214 282 168Z" fill="url(#hairG)"/>
      <path d="M282 168C230 172 192 210 188 290C184 380 176 470 164 560L194 560C202 470 200 380 210 300C220 250 250 226 282 168Z" fill="url(#hairG)"/>
      <g fill="none" stroke-linecap="round"><path d="M286 178Q397.8 258.2 424 518.3" stroke="#4c423e" stroke-width="1" opacity="0.6"/><path d="M288.8 178.6Q389.5 226.3 419.1 505.2" stroke="#4c423e" stroke-width="2" opacity="0.4"/><path d="M285.9 179.1Q379.5 235.6 413.7 330.6" stroke="#4c423e" stroke-width="2.2" opacity="0.4"/><path d="M284.9 177.3Q383.4 251 408.4 413.1" stroke="#4c423e" stroke-width="1.9" opacity="0.5"/><path d="M283.5 177.1Q399.1 243.9 423.2 427.6" stroke="#4c423e" stroke-width="2.2" opacity="0.4"/><path d="M286.3 176.7Q392.4 224 416.4 327.5" stroke="#4c423e" stroke-width="1.4" opacity="0.4"/><path d="M288.8 172.1Q384 252 396 504.3" stroke="#4c423e" stroke-width="1.1" opacity="0.4"/><path d="M286.8 176.6Q380.7 244.7 406 397.2" stroke="#4c423e" stroke-width="1.3" opacity="0.3"/><path d="M288.9 178.7Q374.9 221 405.5 519.8" stroke="#4c423e" stroke-width="1.7" opacity="0.5"/><path d="M286 179.5Q386 255.3 418.4 464.3" stroke="#4c423e" stroke-width="1.8" opacity="0.4"/><path d="M286.2 179.9Q364.3 232.1 423.4 434.5" stroke="#4c423e" stroke-width="1" opacity="0.5"/><path d="M288.8 177.4Q377.1 259.3 419.4 370.6" stroke="#4c423e" stroke-width="1" opacity="0.4"/><path d="M289 172.6Q388.8 242 395.5 461.6" stroke="#4c423e" stroke-width="1.2" opacity="0.3"/><path d="M284.3 179.8Q371 224.4 423.3 348.1" stroke="#4c423e" stroke-width="0.9" opacity="0.6"/><path d="M285.3 172.6Q379.3 243 401.4 351.6" stroke="#4c423e" stroke-width="1.9" opacity="0.3"/><path d="M284.3 176.1Q396.5 250 404.8 491.5" stroke="#4c423e" stroke-width="1.1" opacity="0.5"/><path d="M285.3 172.7Q360.1 223.6 399.6 468.4" stroke="#4c423e" stroke-width="1.6" opacity="0.5"/><path d="M289.5 177.7Q391.7 249.6 408.4 396.4" stroke="#4c423e" stroke-width="2.1" opacity="0.6"/><path d="M282.7 175.1Q374 259.8 401 420.5" stroke="#4c423e" stroke-width="2.1" opacity="0.5"/><path d="M289.7 178.8Q390 251.8 407.3 500.8" stroke="#4c423e" stroke-width="1.4" opacity="0.5"/><path d="M289.9 179.4Q366 258 402 363.5" stroke="#4c423e" stroke-width="1.7" opacity="0.6"/><path d="M286.9 176.5Q387.5 245.3 424.2 419" stroke="#4c423e" stroke-width="0.9" opacity="0.5"/><path d="M284.8 177.7Q383 229.3 403.2 339.2" stroke="#4c423e" stroke-width="0.9" opacity="0.5"/><path d="M285.6 173.4Q378.8 234.2 408.4 386.5" stroke="#4c423e" stroke-width="2.1" opacity="0.4"/><path d="M286 174.2Q381.4 240.9 418.6 389.6" stroke="#4c423e" stroke-width="1.3" opacity="0.5"/><path d="M289.3 179.7Q368.9 229 404.1 376.5" stroke="#4c423e" stroke-width="2.2" opacity="0.6"/><path d="M283.4 172.4Q371.9 230.3 409.7 465.9" stroke="#4c423e" stroke-width="2.3" opacity="0.3"/><path d="M284 177.7Q389.7 257.1 418.1 446" stroke="#4c423e" stroke-width="2" opacity="0.5"/><path d="M287.7 175.4Q389 226.3 410.6 381.9" stroke="#4c423e" stroke-width="2.2" opacity="0.5"/><path d="M282.3 175.3Q399.9 254.7 402.4 454.2" stroke="#4c423e" stroke-width="1.3" opacity="0.5"/><path d="M283.3 172.9Q371.8 257.5 423.1 451.7" stroke="#4c423e" stroke-width="1.6" opacity="0.3"/><path d="M287.1 173.6Q397.4 244.5 397.4 415.7" stroke="#4c423e" stroke-width="1.4" opacity="0.3"/><path d="M289.8 177.2Q366.1 225.5 405.5 320.4" stroke="#4c423e" stroke-width="1.4" opacity="0.5"/><path d="M285.7 177.3Q373.5 243.6 400.2 465.2" stroke="#4c423e" stroke-width="0.9" opacity="0.5"/><path d="M289.2 173.6Q394.5 229.8 398.1 393.4" stroke="#4c423e" stroke-width="1.1" opacity="0.4"/><path d="M286.1 174.3Q364.1 229.3 406 432.7" stroke="#4c423e" stroke-width="1.1" opacity="0.5"/><path d="M287.4 173.6Q388.4 246.5 413.7 347.1" stroke="#4c423e" stroke-width="1.1" opacity="0.4"/><path d="M287.3 173.5Q365.9 242.9 410.4 450.8" stroke="#4c423e" stroke-width="1" opacity="0.5"/><path d="M285.5 179.4Q388.2 223.8 421 352.7" stroke="#4c423e" stroke-width="1.4" opacity="0.5"/><path d="M286.8 177.4Q382.7 252.1 422.1 332.7" stroke="#4c423e" stroke-width="2.2" opacity="0.5"/><path d="M285.2 172.6Q371.4 250 409.6 461.9" stroke="#4c423e" stroke-width="1.3" opacity="0.4"/><path d="M282.5 173.3Q361.4 220.1 424.7 405.6" stroke="#4c423e" stroke-width="1.7" opacity="0.5"/><path d="M285.8 177.6Q362.9 233.7 416.5 401.5" stroke="#4c423e" stroke-width="1.5" opacity="0.5"/><path d="M282.6 174.3Q389.9 252.2 415.8 485.9" stroke="#4c423e" stroke-width="1.2" opacity="0.4"/><path d="M286.6 179.1Q386.4 226.5 398.4 483.3" stroke="#4c423e" stroke-width="1.3" opacity="0.5"/><path d="M289.7 178.7Q380.9 258.7 410.5 485.8" stroke="#4c423e" stroke-width="2.4" opacity="0.4"/><path d="M283.5 178.5Q377.9 229 418.4 498.2" stroke="#4c423e" stroke-width="1.6" opacity="0.3"/><path d="M289.6 176.9Q368.2 225.1 406.5 365.8" stroke="#4c423e" stroke-width="2.2" opacity="0.5"/><path d="M282.3 175.3Q361.4 255.6 408.5 391" stroke="#4c423e" stroke-width="1.5" opacity="0.4"/><path d="M288.4 175.6Q392.4 257.8 405.3 383.1" stroke="#4c423e" stroke-width="2.3" opacity="0.6"/><path d="M285.4 176.6Q396.2 258.2 415.1 356.8" stroke="#4c423e" stroke-width="1.9" opacity="0.6"/><path d="M285.5 173.2Q375.7 243.6 414.6 383.7" stroke="#4c423e" stroke-width="2.2" opacity="0.4"/><path d="M289.6 173.7Q390.7 224.1 405.4 502.3" stroke="#4c423e" stroke-width="1.2" opacity="0.4"/><path d="M284.5 174.4Q374.7 230.2 407.4 453.6" stroke="#4c423e" stroke-width="1.2" opacity="0.4"/><path d="M288 175Q360.7 256.6 422.4 506.4" stroke="#4c423e" stroke-width="1.8" opacity="0.3"/><path d="M283.1 177.4Q382.9 234.2 407.3 475.9" stroke="#4c423e" stroke-width="2" opacity="0.3"/><path d="M286.6 179.9Q397.2 220.1 405.4 424.6" stroke="#4c423e" stroke-width="1.8" opacity="0.4"/><path d="M289.3 174.8Q398 239.6 404.6 422.1" stroke="#4c423e" stroke-width="1.3" opacity="0.5"/><path d="M286.4 175.2Q393.1 237 411.7 353.9" stroke="#4c423e" stroke-width="1.9" opacity="0.6"/><path d="M289.6 179.2Q386.5 239.3 414.8 442.6" stroke="#4c423e" stroke-width="1.3" opacity="0.4"/><path d="M290 177.5Q381.3 227.4 401.5 534.4" stroke="#4c423e" stroke-width="1" opacity="0.3"/><path d="M283.5 174.2Q365.8 253.6 423.2 376.4" stroke="#4c423e" stroke-width="2" opacity="0.5"/><path d="M282.9 175.3Q378.2 229 416.7 464.5" stroke="#4c423e" stroke-width="1.5" opacity="0.3"/><path d="M289 178.4Q386.9 245.7 405.2 515.6" stroke="#4c423e" stroke-width="1.9" opacity="0.5"/><path d="M289.5 175.6Q390.7 257.5 417.1 521.2" stroke="#4c423e" stroke-width="1.8" opacity="0.3"/><path d="M284.6 173.9Q380.9 246.8 404 400.5" stroke="#4c423e" stroke-width="2.1" opacity="0.3"/><path d="M283.1 177.4Q373.2 245.3 418.1 350.3" stroke="#4c423e" stroke-width="1.8" opacity="0.3"/><path d="M288 177Q396.2 236.4 414 503.4" stroke="#4c423e" stroke-width="1.3" opacity="0.4"/><path d="M283.3 173.9Q377.6 254.1 422.1 347.8" stroke="#4c423e" stroke-width="1.1" opacity="0.5"/><path d="M288.1 175.4Q394.3 230.6 400.8 512.3" stroke="#4c423e" stroke-width="1.1" opacity="0.5"/></g>
      <g fill="none" stroke-linecap="round"><path d="M278 174.5Q202.9 239.4 186.6 443.8" stroke="#4c423e" stroke-width="2.2" opacity="0.3"/><path d="M278 174.8Q193.4 237.1 177.9 445.2" stroke="#4c423e" stroke-width="0.9" opacity="0.3"/><path d="M278 176.4Q205.3 231.7 188.5 371.1" stroke="#4c423e" stroke-width="1.7" opacity="0.4"/><path d="M278 174.1Q213.7 248.1 178.2 469.7" stroke="#4c423e" stroke-width="1.9" opacity="0.5"/><path d="M278 174Q218 231.1 183.1 468.3" stroke="#4c423e" stroke-width="1.4" opacity="0.5"/><path d="M278 172.2Q206 252.4 190.7 351.1" stroke="#4c423e" stroke-width="0.9" opacity="0.5"/><path d="M278 172.9Q204.9 251.6 193.1 474.5" stroke="#4c423e" stroke-width="1.8" opacity="0.4"/><path d="M278 173Q200.2 250.7 193.7 379.6" stroke="#4c423e" stroke-width="2.4" opacity="0.3"/><path d="M278 175.3Q200.7 259.5 190.6 540.3" stroke="#4c423e" stroke-width="2.2" opacity="0.4"/><path d="M278 173.6Q197.3 258.7 194 501.1" stroke="#4c423e" stroke-width="1.4" opacity="0.5"/><path d="M278 175.2Q206.2 258.3 192.6 398.4" stroke="#4c423e" stroke-width="1.9" opacity="0.5"/><path d="M278 176.5Q197.8 259.2 175.2 503.9" stroke="#4c423e" stroke-width="1.9" opacity="0.3"/><path d="M278 175.8Q204.5 246.4 179.9 526.7" stroke="#4c423e" stroke-width="2.4" opacity="0.4"/><path d="M278 173.7Q212 244 184.4 411.2" stroke="#4c423e" stroke-width="1.3" opacity="0.4"/><path d="M278 177Q216.8 234.8 176.3 539" stroke="#4c423e" stroke-width="2.1" opacity="0.3"/><path d="M278 175Q204.8 250.6 181.4 402.7" stroke="#4c423e" stroke-width="1.2" opacity="0.3"/><path d="M278 173.6Q190.7 239 174.4 418.4" stroke="#4c423e" stroke-width="2.4" opacity="0.5"/><path d="M278 179.9Q196.6 257.9 174.1 445.2" stroke="#4c423e" stroke-width="1.8" opacity="0.5"/><path d="M278 173.6Q205.1 232.4 188.3 349.9" stroke="#4c423e" stroke-width="1.5" opacity="0.2"/><path d="M278 174Q218.4 232.1 182.8 546.5" stroke="#4c423e" stroke-width="1.3" opacity="0.3"/><path d="M278 173.1Q211.7 251.6 194.4 394" stroke="#4c423e" stroke-width="1.7" opacity="0.4"/><path d="M278 174.7Q206.4 237.2 184 442.2" stroke="#4c423e" stroke-width="0.9" opacity="0.2"/><path d="M278 176.7Q206.8 250.4 188.1 509.6" stroke="#4c423e" stroke-width="1.5" opacity="0.3"/><path d="M278 176.8Q204.7 239.4 178.5 416.6" stroke="#4c423e" stroke-width="1.7" opacity="0.4"/><path d="M278 173.3Q215.7 258.2 179.3 455.1" stroke="#4c423e" stroke-width="0.8" opacity="0.4"/><path d="M278 176Q209.7 230.6 178.8 481.1" stroke="#4c423e" stroke-width="1.8" opacity="0.5"/><path d="M278 177.4Q207.1 237.7 195 339.2" stroke="#4c423e" stroke-width="1.1" opacity="0.3"/><path d="M278 178.1Q207.9 258.6 178.6 339.9" stroke="#4c423e" stroke-width="1.7" opacity="0.2"/><path d="M278 172.5Q208.3 236.5 175.2 477.8" stroke="#4c423e" stroke-width="1" opacity="0.5"/><path d="M278 172.5Q199.9 234.5 184.7 533.2" stroke="#4c423e" stroke-width="1.3" opacity="0.5"/><path d="M278 175.4Q204.5 245.4 184.4 428.2" stroke="#4c423e" stroke-width="1.9" opacity="0.5"/><path d="M278 175.7Q205.5 250.9 197.9 434" stroke="#4c423e" stroke-width="1.7" opacity="0.3"/><path d="M278 179.3Q215.1 237.7 173.6 363.4" stroke="#4c423e" stroke-width="2.1" opacity="0.5"/><path d="M278 174.7Q213.2 252.2 173.4 470.3" stroke="#4c423e" stroke-width="1.1" opacity="0.5"/><path d="M278 176.2Q210.2 233 182.9 370.8" stroke="#4c423e" stroke-width="2" opacity="0.4"/><path d="M278 179.2Q212.9 231.4 176.4 362.5" stroke="#4c423e" stroke-width="1.2" opacity="0.5"/><path d="M278 178.9Q216.8 254.4 179.9 387.9" stroke="#4c423e" stroke-width="2.1" opacity="0.3"/><path d="M278 178.7Q201.7 246.3 196.3 461.6" stroke="#4c423e" stroke-width="1.9" opacity="0.5"/><path d="M278 172.7Q219.3 256.1 194.9 403.3" stroke="#4c423e" stroke-width="2.2" opacity="0.2"/><path d="M278 178.4Q205.4 251.1 172.4 456.6" stroke="#4c423e" stroke-width="1.3" opacity="0.4"/><path d="M278 172.8Q193.3 241.1 172.1 522.3" stroke="#4c423e" stroke-width="1.3" opacity="0.5"/><path d="M278 175.9Q198 236.5 180.8 417.8" stroke="#4c423e" stroke-width="2" opacity="0.3"/><path d="M278 179.7Q210.9 231.9 177.9 425.8" stroke="#4c423e" stroke-width="2.4" opacity="0.5"/><path d="M278 177.3Q203.4 237.4 186.7 495" stroke="#4c423e" stroke-width="1.4" opacity="0.3"/><path d="M278 176.6Q191.4 253.7 187.4 512.8" stroke="#4c423e" stroke-width="2" opacity="0.4"/><path d="M278 174.4Q199.5 242.8 197.4 512.8" stroke="#4c423e" stroke-width="2.2" opacity="0.2"/><path d="M278 173.7Q213.3 237 197 506.6" stroke="#4c423e" stroke-width="1" opacity="0.5"/><path d="M278 177.7Q208.8 255.4 195.3 434.1" stroke="#4c423e" stroke-width="2.4" opacity="0.4"/><path d="M278 177.4Q215.2 257.3 186.5 406.3" stroke="#4c423e" stroke-width="2.2" opacity="0.5"/><path d="M278 176.1Q204.1 246.7 195.6 407.2" stroke="#4c423e" stroke-width="2.1" opacity="0.3"/></g>
<path d="M196 250C180 320 190 400 216 440" stroke="#f0c8ff" stroke-width="5" fill="none" opacity=".5" filter="url(#b4)"/>
<rect width="600" height="760" fill="url(#vignette)"/>
</svg>