<svg xmlns="http://www.w3.org/2000/svg" viewBox="0 0 900 480"><defs><filter id="b1" x="-50%" y="-50%" width="200%" height="200%"><feGaussianBlur stdDeviation="1"/></filter><filter id="b2" x="-50%" y="-50%" width="200%" height="200%"><feGaussianBlur stdDeviation="2"/></filter><filter id="b4" x="-50%" y="-50%" width="200%" height="200%"><feGaussianBlur stdDeviation="4"/></filter><filter id="b8" x="-50%" y="-50%" width="200%" height="200%"><feGaussianBlur stdDeviation="8"/></filter><filter id="b14" x="-50%" y="-50%" width="200%" height="200%"><feGaussianBlur stdDeviation="14"/></filter><filter id="b24" x="-50%" y="-50%" width="200%" height="200%"><feGaussianBlur stdDeviation="24"/></filter><filter id="b40" x="-50%" y="-50%" width="200%" height="200%"><feGaussianBlur stdDeviation="40"/></filter><filter id="grain"><feTurbulence type="fractalNoise" baseFrequency=".9" numOctaves="2" seed="5"/><feColorMatrix type="saturate" values="0"/><feComponentTransfer><feFuncA type="table" tableValues="0 .06"/></feComponentTransfer><feComposite in2="SourceGraphic" operator="in"/></filter>
    <linearGradient id="sky" x1="0" y1="0" x2="0" y2="1"><stop stop-color="#f6c58a"/><stop offset=".6" stop-color="#e88f62"/><stop offset="1" stop-color="#b45a4c"/></linearGradient>
    <linearGradient id="street" x1="0" y1="0" x2="0" y2="1"><stop stop-color="#8a5a48"/><stop offset="1" stop-color="#3a2420"/></linearGradient>
    <linearGradient id="wall" x1="0" y1="0" x2="1" y2="0"><stop stop-color="#b8735a"/><stop offset="1" stop-color="#8a4f42"/></linearGradient></defs><rect width="900" height="480" fill="url(#sky)"/>
   <circle cx="640" cy="200" r="140" fill="#fff0c2" opacity=".55" filter="url(#b40)"/>
   <path d="M560 260L560 120L600 110L620 140L640 100L680 120L700 260Z" fill="#c98a6a" opacity=".5" filter="url(#b2)"/>
   <path d="M0 0H420L600 150V260L420 480H0Z" fill="url(#wall)"/>
   <rect x="30" y="40" width="60" height="46" rx="3" fill="#3a2a2a" opacity="0.8"/><rect x="125" y="46" width="52.8" height="40.5" rx="3" fill="#ffcf7a" opacity="0.95"/><rect x="115" y="36" width="72.8" height="60.5" fill="#ffb347" opacity=".35" filter="url(#b8)"/><rect x="220" y="52" width="45.6" height="35" rx="3" fill="#3a2a2a" opacity="0.8"/><rect x="315" y="58" width="38.4" height="29.4" rx="3" fill="#ffcf7a" opacity="0.95"/><rect x="305" y="48" width="58.4" height="49.4" fill="#ffb347" opacity=".35" filter="url(#b8)"/><rect x="30" y="110" width="60" height="46" rx="3" fill="#3a2a2a" opacity="0.8"/><rect x="125" y="116" width="52.8" height="40.5" rx="3" fill="#ffcf7a" opacity="0.95"/><rect x="115" y="106" width="72.8" height="60.5" fill="#ffb347" opacity=".35" filter="url(#b8)"/><rect x="220" y="122" width="45.6" height="35" rx="3" fill="#3a2a2a" opacity="0.8"/><rect x="315" y="128" width="38.4" height="29.4" rx="3" fill="#ffcf7a" opacity="0.95"/><rect x="305" y="118" width="58.4" height="49.4" fill="#ffb347" opacity=".35" filter="url(#b8)"/><rect x="30" y="180" width="60" height="46" rx="3" fill="#ffcf7a" opacity="0.95"/><rect x="20" y="170" width="80" height="66" fill="#ffb347" opacity=".35" filter="url(#b8)"/><rect x="125" y="186" width="52.8" height="40.5" rx="3" fill="#ffcf7a" opacity="0.95"/><rect x="115" y="176" width="72.8" height="60.5" fill="#ffb347" opacity=".35" filter="url(#b8)"/><rect x="220" y="192" width="45.6" height="35" rx="3" fill="#ffcf7a" opacity="0.95"/><rect x="210" y="182" width="65.6" height="55" fill="#ffb347" opacity=".35" filter="url(#b8)"/><rect x="315" y="198" width="38.4" height="29.4" rx="3" fill="#3a2a2a" opacity="0.8"/><rect x="30" y="250" width="60" height="46" rx="3" fill="#3a2a2a" opacity="0.8"/><rect x="125" y="256" width="52.8" height="40.5" rx="3" fill="#3a2a2a" opacity="0.8"/><rect x="220" y="262" width="45.6" height="35" rx="3" fill="#3a2a2a" opacity="0.8"/><rect x="315" y="268" width="38.4" height="29.4" rx="3" fill="#3a2a2a" opacity="0.8"/>
   <path d="M0 250H440L580 240V254L440 270H0Z" fill="#5a2a26"/>
   <path d="M0 270H440L580 254L580 264L440 300H0Z" fill="#ffcf7a" opacity=".55" filter="url(#b8)"/>
   <path d="M0 480L600 260L700 260L900 480Z" fill="url(#street)"/>
   <path d="M629 223.4H647.4" stroke="#2a1a1a" stroke-width="0.6" opacity=".35"/><path d="M606.6 230.3H662.3" stroke="#2a1a1a" stroke-width="0.8" opacity=".35"/><path d="M576 239.8H682.6" stroke="#2a1a1a" stroke-width="0.9" opacity=".35"/><path d="M538.6 251.4H707.6" stroke="#2a1a1a" stroke-width="1" opacity=".35"/><path d="M495.2 264.8H736.6" stroke="#2a1a1a" stroke-width="1.2" opacity=".35"/><path d="M446.1 280H769.3" stroke="#2a1a1a" stroke-width="1.3" opacity=".35"/><path d="M391.9 296.8H805.4" stroke="#2a1a1a" stroke-width="1.4" opacity=".35"/><path d="M332.8 315.1H844.8" stroke="#2a1a1a" stroke-width="1.6" opacity=".35"/><path d="M269 334.8H887.3" stroke="#2a1a1a" stroke-width="1.7" opacity=".35"/><path d="M200.9 355.9H932.7" stroke="#2a1a1a" stroke-width="1.8" opacity=".35"/><path d="M128.6 378.3H980.9" stroke="#2a1a1a" stroke-width="2" opacity=".35"/><path d="M52.2 401.9H1031.9" stroke="#2a1a1a" stroke-width="2.1" opacity=".35"/><path d="M-28.1 426.8H1085.4" stroke="#2a1a1a" stroke-width="2.2" opacity=".35"/><path d="M-112.2 452.8H1141.5" stroke="#2a1a1a" stroke-width="2.4" opacity=".35"/>
   <g filter="url(#b2)"><circle cx="945.1" cy="140.2" r="32.5" fill="#3a4a22" opacity="1"/><circle cx="804.3" cy="110.6" r="36.7" fill="#6a8a36" opacity="0.8"/><circle cx="743.2" cy="110.7" r="40.7" fill="#4a6a2a" opacity="1"/><circle cx="838.1" cy="107.8" r="31.8" fill="#e8c46a" opacity="1"/><circle cx="682.5" cy="64.9" r="26.2" fill="#e8c46a" opacity="0.6"/><circle cx="867.1" cy="146.8" r="46.5" fill="#3a4a22" opacity="0.6"/><circle cx="697.3" cy="206.4" r="27.7" fill="#4a6a2a" opacity="0.8"/><circle cx="890.7" cy="185.2" r="22.6" fill="#3a4a22" opacity="0.9"/><circle cx="800.5" cy="146.1" r="21.5" fill="#6a8a36" opacity="0.8"/><circle cx="918" cy="163.2" r="32.8" fill="#c8a84a" opacity="1"/><circle cx="920.3" cy="45.9" r="35.2" fill="#3a4a22" opacity="0.7"/><circle cx="759.6" cy="136.7" r="29.7" fill="#6a8a36" opacity="0.9"/><circle cx="760.4" cy="146.5" r="38.3" fill="#4a6a2a" opacity="0.9"/><circle cx="870.2" cy="207" r="36.9" fill="#6a8a36" opacity="0.7"/><circle cx="830.1" cy="155.1" r="47.8" fill="#3a4a22" opacity="1"/><circle cx="813.7" cy="214.1" r="33.6" fill="#6a8a36" opacity="0.9"/><circle cx="877.9" cy="24.5" r="34.2" fill="#6a8a36" opacity="0.6"/><circle cx="919.3" cy="127.8" r="22.3" fill="#3a4a22" opacity="0.9"/><circle cx="921.7" cy="92.7" r="27" fill="#c8a84a" opacity="0.8"/><circle cx="680.4" cy="55.2" r="34.8" fill="#c8a84a" opacity="1"/><circle cx="710.3" cy="79.4" r="30.2" fill="#6a8a36" opacity="0.9"/><circle cx="809.6" cy="217.3" r="46.1" fill="#e8c46a" opacity="0.8"/><circle cx="789.1" cy="131.8" r="46.7" fill="#3a4a22" opacity="0.9"/><circle cx="647" cy="117" r="27.2" fill="#c8a84a" opacity="0.8"/><circle cx="701.8" cy="65.3" r="25.3" fill="#3a4a22" opacity="1"/><circle cx="655" cy="79.4" r="22.5" fill="#e8c46a" opacity="0.9"/><circle cx="660.6" cy="72.8" r="37.7" fill="#c8a84a" opacity="0.8"/><circle cx="702.6" cy="195.7" r="27.4" fill="#c8a84a" opacity="0.6"/><circle cx="733.6" cy="108.3" r="42.9" fill="#6a8a36" opacity="0.9"/><circle cx="802.2" cy="228.7" r="36.7" fill="#3a4a22" opacity="0.9"/><circle cx="787.6" cy="117.8" r="32" fill="#3a4a22" opacity="0.6"/><circle cx="722.2" cy="158.6" r="19.9" fill="#3a4a22" opacity="0.9"/><circle cx="653.4" cy="98.5" r="27.8" fill="#e8c46a" opacity="0.9"/><circle cx="927.2" cy="83.3" r="30.9" fill="#4a6a2a" opacity="0.7"/><circle cx="886.2" cy="149.2" r="38.1" fill="#6a8a36" opacity="0.8"/><circle cx="799.8" cy="-2.5" r="32.9" fill="#3a4a22" opacity="0.7"/><circle cx="862.4" cy="8.3" r="21.4" fill="#c8a84a" opacity="0.6"/><circle cx="839.4" cy="67.9" r="43.8" fill="#3a4a22" opacity="0.9"/><circle cx="770.5" cy="6.7" r="38.4" fill="#c8a84a" opacity="0.8"/><circle cx="843.7" cy="205.3" r="42.3" fill="#3a4a22" opacity="0.9"/><circle cx="807.4" cy="55.9" r="20.9" fill="#c8a84a" opacity="0.9"/><circle cx="842.2" cy="75.6" r="32.5" fill="#3a4a22" opacity="1"/><circle cx="703" cy="59.1" r="32.6" fill="#4a6a2a" opacity="0.6"/><circle cx="917" cy="187.6" r="27.2" fill="#e8c46a" opacity="0.9"/><circle cx="764.8" cy="5.8" r="29.2" fill="#3a4a22" opacity="0.7"/><circle cx="724" cy="170.7" r="20.8" fill="#c8a84a" opacity="0.9"/><circle cx="845.5" cy="62.2" r="35.2" fill="#3a4a22" opacity="0.9"/><circle cx="748.7" cy="107.1" r="41.3" fill="#4a6a2a" opacity="0.6"/><circle cx="877.6" cy="199.9" r="22.9" fill="#e8c46a" opacity="0.6"/><circle cx="806.8" cy="-2.9" r="47.3" fill="#6a8a36" opacity="0.8"/><circle cx="705" cy="75.3" r="39.6" fill="#6a8a36" opacity="0.9"/><circle cx="815.9" cy="113.5" r="46.1" fill="#c8a84a" opacity="1"/><circle cx="652.5" cy="92.6" r="24.4" fill="#e8c46a" opacity="0.6"/><circle cx="739" cy="35.9" r="25.7" fill="#6a8a36" opacity="1"/><circle cx="767.5" cy="233" r="32.7" fill="#4a6a2a" opacity="0.6"/><circle cx="810.3" cy="194.2" r="28.4" fill="#3a4a22" opacity="0.8"/><circle cx="696.2" cy="21" r="31.9" fill="#6a8a36" opacity="0.7"/><circle cx="869.1" cy="102" r="34.8" fill="#4a6a2a" opacity="0.7"/><circle cx="764.2" cy="147.5" r="40" fill="#4a6a2a" opacity="0.8"/><circle cx="662.3" cy="70.3" r="45.2" fill="#c8a84a" opacity="0.6"/><circle cx="747.3" cy="201.7" r="19.7" fill="#e8c46a" opacity="0.9"/><circle cx="933.7" cy="162" r="44.6" fill="#e8c46a" opacity="0.9"/><circle cx="795.7" cy="51.7" r="43.4" fill="#4a6a2a" opacity="0.9"/><circle cx="708.8" cy="68" r="46.4" fill="#e8c46a" opacity="0.9"/><circle cx="743.7" cy="156.9" r="21.8" fill="#6a8a36" opacity="0.6"/><circle cx="889.3" cy="175.3" r="24.5" fill="#e8c46a" opacity="0.6"/><circle cx="906.1" cy="33.2" r="30" fill="#e8c46a" opacity="0.9"/><circle cx="784.5" cy="157.8" r="37.7" fill="#3a4a22" opacity="0.9"/><circle cx="788" cy="46.5" r="19.4" fill="#3a4a22" opacity="0.9"/><circle cx="804.7" cy="130.7" r="38.9" fill="#4a6a2a" opacity="1"/><circle cx="735.2" cy="213.6" r="36.9" fill="#4a6a2a" opacity="1"/><circle cx="789.3" cy="99.6" r="29" fill="#4a6a2a" opacity="0.7"/><circle cx="843.6" cy="205.6" r="44.1" fill="#c8a84a" opacity="0.8"/><circle cx="694" cy="31.6" r="23.7" fill="#4a6a2a" opacity="0.7"/><circle cx="652.4" cy="128.6" r="26.1" fill="#4a6a2a" opacity="0.8"/><circle cx="834.5" cy="140.7" r="44.6" fill="#6a8a36" opacity="0.7"/><circle cx="694.3" cy="26.2" r="24.6" fill="#6a8a36" opacity="1"/><circle cx="811.5" cy="88.1" r="41.8" fill="#e8c46a" opacity="0.7"/><circle cx="718.2" cy="217.6" r="28.2" fill="#e8c46a" opacity="0.7"/><circle cx="809.6" cy="243.6" r="24.1" fill="#4a6a2a" opacity="0.8"/><circle cx="737" cy="196.9" r="20.5" fill="#5a7a2e" opacity="1"/><circle cx="694.6" cy="149.1" r="10.2" fill="#d8b456" opacity="1"/><circle cx="700.9" cy="134.4" r="14.2" fill="#d8b456" opacity="0.8"/><circle cx="715.2" cy="219.1" r="13.8" fill="#d8b456" opacity="1"/><circle cx="705.3" cy="171" r="17.2" fill="#5a7a2e" opacity="0.8"/><circle cx="714.3" cy="168.4" r="18.2" fill="#8a9a3a" opacity="0.6"/><circle cx="674.9" cy="137.5" r="19" fill="#d8b456" opacity="0.7"/><circle cx="758" cy="177.2" r="13.4" fill="#8a9a3a" opacity="0.7"/><circle cx="699.9" cy="130.4" r="12.7" fill="#d8b456" opacity="1"/><circle cx="729.2" cy="191.5" r="20.7" fill="#5a7a2e" opacity="0.9"/><circle cx="746.4" cy="170.1" r="9.4" fill="#8a9a3a" opacity="1"/><circle cx="677.2" cy="125.9" r="8.7" fill="#5a7a2e" opacity="1"/><circle cx="726.5" cy="151.7" r="16.1" fill="#d8b456" opacity="0.8"/><circle cx="754.6" cy="138" r="16.1" fill="#d8b456" opacity="1"/><circle cx="680.4" cy="151.3" r="16.6" fill="#d8b456" opacity="0.9"/><circle cx="744.9" cy="154.9" r="16.7" fill="#5a7a2e" opacity="0.7"/><circle cx="752.9" cy="133.9" r="11.1" fill="#8a9a3a" opacity="0.6"/><circle cx="730.5" cy="185" r="18.1" fill="#8a9a3a" opacity="0.9"/><circle cx="675" cy="215.3" r="20.7" fill="#8a9a3a" opacity="0.9"/><circle cx="639.1" cy="173" r="19.2" fill="#5a7a2e" opacity="0.7"/><circle cx="677.3" cy="170.5" r="16.5" fill="#5a7a2e" opacity="0.8"/><circle cx="667.8" cy="198.7" r="17.2" fill="#5a7a2e" opacity="0.9"/><circle cx="682.8" cy="206.6" r="8.8" fill="#d8b456" opacity="0.9"/><circle cx="643.5" cy="153.3" r="13.7" fill="#d8b456" opacity="0.7"/><circle cx="723.3" cy="130.6" r="20.5" fill="#5a7a2e" opacity="0.9"/><circle cx="721.5" cy="155.7" r="13.7" fill="#8a9a3a" opacity="0.7"/><circle cx="744.4" cy="199.3" r="14.1" fill="#8a9a3a" opacity="0.9"/><circle cx="748" cy="183.7" r="12.5" fill="#8a9a3a" opacity="1"/><circle cx="728.7" cy="220" r="8.6" fill="#5a7a2e" opacity="0.9"/><circle cx="681.6" cy="123.9" r="19.2" fill="#d8b456" opacity="0.7"/></g>
   <rect x="770" y="200" width="16" height="200" fill="#2a1c14"/><rect x="694" y="220" width="8" height="90" fill="#2a1c14"/>
   <g transform="translate(598 301.2) scale(0.8)" opacity=".75" filter="url(#b2)"><circle cx="0" cy="-70" r="11" fill="#2a1c1e"/><path d="M-16 -56H16L20 0H-20Z" fill="#3a2630"/></g><g transform="translate(489.5 326.8) scale(0.9)" opacity=".75" filter="url(#b2)"><circle cx="0" cy="-70" r="11" fill="#2a1c1e"/><path d="M-16 -56H16L20 0H-20Z" fill="#3a2630"/></g><g transform="translate(512.5 328.9) scale(0.7)" opacity=".75" filter="url(#b2)"><circle cx="0" cy="-70" r="11" fill="#2a1c1e"/><path d="M-16 -56H16L20 0H-20Z" fill="#3a2630"/></g><g transform="translate(448 314.7) scale(0.8)" opacity=".75" filter="url(#b2)"><circle cx="0" cy="-70" r="11" fill="#2a1c1e"/><path d="M-16 -56H16L20 0H-20Z" fill="#3a2630"/></g><g transform="translate(592.6 332.2) scale(0.8)" opacity=".75" filter="url(#b2)"><circle cx="0" cy="-70" r="11" fill="#2a1c1e"/><path d="M-16 -56H16L20 0H-20Z" fill="#3a2630"/></g><g transform="translate(432.7 302) scale(0.6)" opacity=".75" filter="url(#b2)"><circle cx="0" cy="-70" r="11" fill="#2a1c1e"/><path d="M-16 -56H16L20 0H-20Z" fill="#3a2630"/></g><g transform="translate(665.5 312.5) scale(0.8)" opacity=".75" filter="url(#b2)"><circle cx="0" cy="-70" r="11" fill="#2a1c1e"/><path d="M-16 -56H16L20 0H-20Z" fill="#3a2630"/></g>
   <g transform="translate(70 400) scale(1)">
      <path d="M-70 -120L0 -150L70 -120Z" fill="#7a2f2a"/><path d="M-70 -120L0 -150L70 -120L60 -112L0 -138L-60 -112Z" fill="#a8463a"/>
      <rect x="-3" y="-140" width="6" height="140" fill="#2a1a14"/>
      <ellipse cx="0" cy="-2" rx="48" ry="9" fill="#5a3a26"/><rect x="-46" y="-2" width="92" height="7" fill="#3a2418"/>
      <path d="M-70 0V-46H-44V0M44 0V-46H70V0" stroke="#3a2418" stroke-width="6" fill="none"/>
      <circle cx="-8" cy="-12" r="6" fill="#ffe2a8" opacity=".9"/><circle cx="-8" cy="-14" r="16" fill="#ffb347" opacity=".35" filter="url(#b4)"/>
    </g><g transform="translate(154 376) scale(0.9)">
      <path d="M-70 -120L0 -150L70 -120Z" fill="#7a2f2a"/><path d="M-70 -120L0 -150L70 -120L60 -112L0 -138L-60 -112Z" fill="#a8463a"/>
      <rect x="-3" y="-140" width="6" height="140" fill="#2a1a14"/>
      <ellipse cx="0" cy="-2" rx="48" ry="9" fill="#5a3a26"/><rect x="-46" y="-2" width="92" height="7" fill="#3a2418"/>
      <path d="M-70 0V-46H-44V0M44 0V-46H70V0" stroke="#3a2418" stroke-width="6" fill="none"/>
      <circle cx="-8" cy="-12" r="6" fill="#ffe2a8" opacity=".9"/><circle cx="-8" cy="-14" r="16" fill="#ffb347" opacity=".35" filter="url(#b4)"/>
    </g><g transform="translate(238 352) scale(0.8)">
      <path d="M-70 -120L0 -150L70 -120Z" fill="#7a2f2a"/><path d="M-70 -120L0 -150L70 -120L60 -112L0 -138L-60 -112Z" fill="#a8463a"/>
      <rect x="-3" y="-140" width="6" height="140" fill="#2a1a14"/>
      <ellipse cx="0" cy="-2" rx="48" ry="9" fill="#5a3a26"/><rect x="-46" y="-2" width="92" height="7" fill="#3a2418"/>
      <path d="M-70 0V-46H-44V0M44 0V-46H70V0" stroke="#3a2418" stroke-width="6" fill="none"/>
      <circle cx="-8" cy="-12" r="6" fill="#ffe2a8" opacity=".9"/><circle cx="-8" cy="-14" r="16" fill="#ffb347" opacity=".35" filter="url(#b4)"/>
    </g><g transform="translate(322 328) scale(0.6)">
      <path d="M-70 -120L0 -150L70 -120Z" fill="#7a2f2a"/><path d="M-70 -120L0 -150L70 -120L60 -112L0 -138L-60 -112Z" fill="#a8463a"/>
      <rect x="-3" y="-140" width="6" height="140" fill="#2a1a14"/>
      <ellipse cx="0" cy="-2" rx="48" ry="9" fill="#5a3a26"/><rect x="-46" y="-2" width="92" height="7" fill="#3a2418"/>
      <path d="M-70 0V-46H-44V0M44 0V-46H70V0" stroke="#3a2418" stroke-width="6" fill="none"/>
      <circle cx="-8" cy="-12" r="6" fill="#ffe2a8" opacity=".9"/><circle cx="-8" cy="-14" r="16" fill="#ffb347" opacity=".35" filter="url(#b4)"/>
    </g><g transform="translate(406 304) scale(0.5)">
      <path d="M-70 -120L0 -150L70 -120Z" fill="#7a2f2a"/><path d="M-70 -120L0 -150L70 -120L60 -112L0 -138L-60 -112Z" fill="#a8463a"/>
      <rect x="-3" y="-140" width="6" height="140" fill="#2a1a14"/>
      <ellipse cx="0" cy="-2" rx="48" ry="9" fill="#5a3a26"/><rect x="-46" y="-2" width="92" height="7" fill="#3a2418"/>
      <path d="M-70 0V-46H-44V0M44 0V-46H70V0" stroke="#3a2418" stroke-width="6" fill="none"/>
      <circle cx="-8" cy="-12" r="6" fill="#ffe2a8" opacity=".9"/><circle cx="-8" cy="-14" r="16" fill="#ffb347" opacity=".35" filter="url(#b4)"/>
    </g><g transform="translate(490 280) scale(0.4)">
      <path d="M-70 -120L0 -150L70 -120Z" fill="#7a2f2a"/><path d="M-70 -120L0 -150L70 -120L60 -112L0 -138L-60 -112Z" fill="#a8463a"/>
      <rect x="-3" y="-140" width="6" height="140" fill="#2a1a14"/>
      <ellipse cx="0" cy="-2" rx="48" ry="9" fill="#5a3a26"/><rect x="-46" y="-2" width="92" height="7" fill="#3a2418"/>
      <path d="M-70 0V-46H-44V0M44 0V-46H70V0" stroke="#3a2418" stroke-width="6" fill="none"/>
      <circle cx="-8" cy="-12" r="6" fill="#ffe2a8" opacity=".9"/><circle cx="-8" cy="-14" r="16" fill="#ffb347" opacity=".35" filter="url(#b4)"/>
    </g>
   <circle cx="30" cy="205" r="9" fill="#ffd27a" opacity=".55" filter="url(#b4)"/><circle cx="30" cy="205" r="2.6" fill="#fff4d0"/><circle cx="59" cy="207" r="9" fill="#ffd27a" opacity=".55" filter="url(#b4)"/><circle cx="59" cy="207" r="2.6" fill="#fff4d0"/><circle cx="88.1" cy="208.9" r="9" fill="#ffd27a" opacity=".55" filter="url(#b4)"/><circle cx="88.1" cy="208.9" r="2.6" fill="#fff4d0"/><circle cx="117.1" cy="210.6" r="9" fill="#ffd27a" opacity=".55" filter="url(#b4)"/><circle cx="117.1" cy="210.6" r="2.6" fill="#fff4d0"/><circle cx="146.2" cy="212" r="9" fill="#ffd27a" opacity=".55" filter="url(#b4)"/><circle cx="146.2" cy="212" r="2.6" fill="#fff4d0"/><circle cx="175.2" cy="213.2" r="9" fill="#ffd27a" opacity=".55" filter="url(#b4)"/><circle cx="175.2" cy="213.2" r="2.6" fill="#fff4d0"/><circle cx="204.3" cy="213.9" r="9" fill="#ffd27a" opacity=".55" filter="url(#b4)"/><circle cx="204.3" cy="213.9" r="2.6" fill="#fff4d0"/><circle cx="233.3" cy="214.2" r="9" fill="#ffd27a" opacity=".55" filter="url(#b4)"/><circle cx="233.3" cy="214.2" r="2.6" fill="#fff4d0"/><circle cx="262.4" cy="214" r="9" fill="#ffd27a" opacity=".55" filter="url(#b4)"/><circle cx="262.4" cy="214" r="2.6" fill="#fff4d0"/><circle cx="291.4" cy="213.2" r="9" fill="#ffd27a" opacity=".55" filter="url(#b4)"/><circle cx="291.4" cy="213.2" r="2.6" fill="#fff4d0"/><circle cx="320.5" cy="211.9" r="9" fill="#ffd27a" opacity=".55" filter="url(#b4)"/><circle cx="320.5" cy="211.9" r="2.6" fill="#fff4d0"/><circle cx="349.5" cy="210" r="9" fill="#ffd27a" opacity=".55" filter="url(#b4)"/><circle cx="349.5" cy="210" r="2.6" fill="#fff4d0"/><circle cx="378.6" cy="207.5" r="9" fill="#ffd27a" opacity=".55" filter="url(#b4)"/><circle cx="378.6" cy="207.5" r="2.6" fill="#fff4d0"/><circle cx="407.6" cy="204.4" r="9" fill="#ffd27a" opacity=".55" filter="url(#b4)"/><circle cx="407.6" cy="204.4" r="2.6" fill="#fff4d0"/><circle cx="436.7" cy="200.8" r="9" fill="#ffd27a" opacity=".55" filter="url(#b4)"/><circle cx="436.7" cy="200.8" r="2.6" fill="#fff4d0"/><circle cx="465.7" cy="196.8" r="9" fill="#ffd27a" opacity=".55" filter="url(#b4)"/><circle cx="465.7" cy="196.8" r="2.6" fill="#fff4d0"/><circle cx="494.8" cy="192.2" r="9" fill="#ffd27a" opacity=".55" filter="url(#b4)"/><circle cx="494.8" cy="192.2" r="2.6" fill="#fff4d0"/><circle cx="523.8" cy="187.3" r="9" fill="#ffd27a" opacity=".55" filter="url(#b4)"/><circle cx="523.8" cy="187.3" r="2.6" fill="#fff4d0"/><circle cx="552.9" cy="182" r="9" fill="#ffd27a" opacity=".55" filter="url(#b4)"/><circle cx="552.9" cy="182" r="2.6" fill="#fff4d0"/><circle cx="581.9" cy="176.5" r="9" fill="#ffd27a" opacity=".55" filter="url(#b4)"/><circle cx="581.9" cy="176.5" r="2.6" fill="#fff4d0"/><circle cx="611" cy="170.8" r="9" fill="#ffd27a" opacity=".55" filter="url(#b4)"/><circle cx="611" cy="170.8" r="2.6" fill="#fff4d0"/><circle cx="640" cy="165" r="9" fill="#ffd27a" opacity=".55" filter="url(#b4)"/><circle cx="640" cy="165" r="2.6" fill="#fff4d0"/>
   <g filter="url(#b14)"><circle cx="705.8" cy="178" r="15.6" fill="#ffe0a0" opacity=".5"/><circle cx="229.7" cy="101.4" r="11.1" fill="#ffe0a0" opacity=".5"/><circle cx="34.8" cy="78.9" r="14.1" fill="#ffe0a0" opacity=".5"/><circle cx="815.2" cy="82.6" r="11.8" fill="#ffe0a0" opacity=".5"/><circle cx="474.3" cy="47.2" r="11" fill="#ffe0a0" opacity=".5"/><circle cx="551.9" cy="17.7" r="12.4" fill="#ffe0a0" opacity=".5"/><circle cx="69.5" cy="186.3" r="23.9" fill="#ffe0a0" opacity=".5"/><circle cx="736.4" cy="92.6" r="22.4" fill="#ffe0a0" opacity=".5"/><circle cx="743.3" cy="254.4" r="8.8" fill="#ffe0a0" opacity=".5"/><circle cx="761.7" cy="133.5" r="22.4" fill="#ffe0a0" opacity=".5"/></g>
   <rect width="900" height="480" fill="#ff9a4a" opacity=".1"/><rect width="900" height="480" fill="#fff" filter="url(#grain)"/></svg>